<mxfile host="app.diagrams.net" agent="Mozilla/5.0 (Windows NT 10.0; Win64; x64) AppleWebKit/537.36 (KHTML, like Gecko) Chrome/129.0.0.0 Safari/537.36" version="24.7.17">
  <diagram name="Page-1" id="dHeRC03932-vUY8b0eSu">
    <mxGraphModel grid="1" page="1" gridSize="10" guides="1" tooltips="1" connect="1" arrows="1" fold="1" pageScale="1" pageWidth="850" pageHeight="1100" math="0" shadow="0">
      <root>
        <mxCell id="0" />
        <mxCell id="1" parent="0" />
        <mxCell id="rM3IPMLhM91sqdTLPy3J-1" value="Applicant" style="shape=umlLifeline;perimeter=lifelinePerimeter;whiteSpace=wrap;container=1;dropTarget=0;collapsible=0;recursiveResize=0;outlineConnect=0;portConstraint=eastwest;newEdgeStyle={&quot;edgeStyle&quot;:&quot;elbowEdgeStyle&quot;,&quot;elbow&quot;:&quot;vertical&quot;,&quot;curved&quot;:0,&quot;rounded&quot;:0};size=65;fillColor=#e1d5e7;strokeColor=#9673a6;" vertex="1" parent="1">
          <mxGeometry x="20" y="20" width="150" height="576" as="geometry" />
        </mxCell>
        <mxCell id="rM3IPMLhM91sqdTLPy3J-2" value="System" style="shape=umlLifeline;perimeter=lifelinePerimeter;whiteSpace=wrap;container=1;dropTarget=0;collapsible=0;recursiveResize=0;outlineConnect=0;portConstraint=eastwest;newEdgeStyle={&quot;edgeStyle&quot;:&quot;elbowEdgeStyle&quot;,&quot;elbow&quot;:&quot;vertical&quot;,&quot;curved&quot;:0,&quot;rounded&quot;:0};size=65;fillColor=#e1d5e7;strokeColor=#9673a6;" vertex="1" parent="1">
          <mxGeometry x="265" y="20" width="150" height="576" as="geometry" />
        </mxCell>
        <mxCell id="rM3IPMLhM91sqdTLPy3J-3" value="Hiring Manager" style="shape=umlLifeline;perimeter=lifelinePerimeter;whiteSpace=wrap;container=1;dropTarget=0;collapsible=0;recursiveResize=0;outlineConnect=0;portConstraint=eastwest;newEdgeStyle={&quot;edgeStyle&quot;:&quot;elbowEdgeStyle&quot;,&quot;elbow&quot;:&quot;vertical&quot;,&quot;curved&quot;:0,&quot;rounded&quot;:0};size=65;fillColor=#e1d5e7;strokeColor=#9673a6;" vertex="1" parent="1">
          <mxGeometry x="530" y="20" width="150" height="576" as="geometry" />
        </mxCell>
        <mxCell id="rM3IPMLhM91sqdTLPy3J-4" value="Billing Department" style="shape=umlLifeline;perimeter=lifelinePerimeter;whiteSpace=wrap;container=1;dropTarget=0;collapsible=0;recursiveResize=0;outlineConnect=0;portConstraint=eastwest;newEdgeStyle={&quot;edgeStyle&quot;:&quot;elbowEdgeStyle&quot;,&quot;elbow&quot;:&quot;vertical&quot;,&quot;curved&quot;:0,&quot;rounded&quot;:0};size=65;fillColor=#e1d5e7;strokeColor=#9673a6;" vertex="1" parent="1">
          <mxGeometry x="730" y="20" width="152" height="576" as="geometry" />
        </mxCell>
        <mxCell id="rM3IPMLhM91sqdTLPy3J-5" value="Submit Application" style="verticalAlign=bottom;edgeStyle=elbowEdgeStyle;elbow=vertical;curved=0;rounded=0;endArrow=block;" edge="1" parent="1" source="rM3IPMLhM91sqdTLPy3J-1" target="rM3IPMLhM91sqdTLPy3J-2">
          <mxGeometry relative="1" as="geometry">
            <Array as="points">
              <mxPoint x="226" y="127" />
            </Array>
          </mxGeometry>
        </mxCell>
        <mxCell id="rM3IPMLhM91sqdTLPy3J-6" value="Notify Application Received" style="verticalAlign=bottom;edgeStyle=elbowEdgeStyle;elbow=vertical;curved=0;rounded=0;endArrow=block;" edge="1" parent="1" source="rM3IPMLhM91sqdTLPy3J-2" target="rM3IPMLhM91sqdTLPy3J-3">
          <mxGeometry relative="1" as="geometry">
            <Array as="points">
              <mxPoint x="481" y="179" />
            </Array>
          </mxGeometry>
        </mxCell>
        <mxCell id="rM3IPMLhM91sqdTLPy3J-7" value="Review Application" style="verticalAlign=bottom;edgeStyle=elbowEdgeStyle;elbow=vertical;curved=0;rounded=0;endArrow=block;" edge="1" parent="1" source="rM3IPMLhM91sqdTLPy3J-3" target="rM3IPMLhM91sqdTLPy3J-2">
          <mxGeometry relative="1" as="geometry">
            <Array as="points">
              <mxPoint x="484" y="231" />
            </Array>
          </mxGeometry>
        </mxCell>
        <mxCell id="rM3IPMLhM91sqdTLPy3J-8" value="Notify Application Status" style="verticalAlign=bottom;edgeStyle=elbowEdgeStyle;elbow=vertical;curved=0;rounded=0;endArrow=block;" edge="1" parent="1" source="rM3IPMLhM91sqdTLPy3J-2" target="rM3IPMLhM91sqdTLPy3J-1">
          <mxGeometry relative="1" as="geometry">
            <Array as="points">
              <mxPoint x="229" y="283" />
            </Array>
          </mxGeometry>
        </mxCell>
        <mxCell id="rM3IPMLhM91sqdTLPy3J-9" value="Approve Application" style="verticalAlign=bottom;edgeStyle=elbowEdgeStyle;elbow=vertical;curved=0;rounded=0;endArrow=block;" edge="1" parent="1" source="rM3IPMLhM91sqdTLPy3J-3" target="rM3IPMLhM91sqdTLPy3J-2">
          <mxGeometry relative="1" as="geometry">
            <Array as="points">
              <mxPoint x="484" y="335" />
            </Array>
          </mxGeometry>
        </mxCell>
        <mxCell id="rM3IPMLhM91sqdTLPy3J-10" value="Generate Invoice" style="verticalAlign=bottom;edgeStyle=elbowEdgeStyle;elbow=vertical;curved=0;rounded=0;endArrow=block;" edge="1" parent="1" source="rM3IPMLhM91sqdTLPy3J-2" target="rM3IPMLhM91sqdTLPy3J-4">
          <mxGeometry relative="1" as="geometry">
            <Array as="points">
              <mxPoint x="582" y="387" />
            </Array>
          </mxGeometry>
        </mxCell>
        <mxCell id="rM3IPMLhM91sqdTLPy3J-11" value="Invoice Created" style="verticalAlign=bottom;edgeStyle=elbowEdgeStyle;elbow=vertical;curved=0;rounded=0;endArrow=block;" edge="1" parent="1" source="rM3IPMLhM91sqdTLPy3J-4" target="rM3IPMLhM91sqdTLPy3J-2">
          <mxGeometry relative="1" as="geometry">
            <Array as="points">
              <mxPoint x="585" y="439" />
            </Array>
          </mxGeometry>
        </mxCell>
        <mxCell id="rM3IPMLhM91sqdTLPy3J-12" value="Notify Invoice Status" style="verticalAlign=bottom;edgeStyle=elbowEdgeStyle;elbow=vertical;curved=0;rounded=0;endArrow=block;" edge="1" parent="1" source="rM3IPMLhM91sqdTLPy3J-2" target="rM3IPMLhM91sqdTLPy3J-1">
          <mxGeometry relative="1" as="geometry">
            <Array as="points">
              <mxPoint x="229" y="491" />
            </Array>
          </mxGeometry>
        </mxCell>
        <mxCell id="rM3IPMLhM91sqdTLPy3J-13" value="Applicant" style="shape=umlLifeline;perimeter=lifelinePerimeter;whiteSpace=wrap;container=1;dropTarget=0;collapsible=0;recursiveResize=0;outlineConnect=0;portConstraint=eastwest;newEdgeStyle={&quot;edgeStyle&quot;:&quot;elbowEdgeStyle&quot;,&quot;elbow&quot;:&quot;vertical&quot;,&quot;curved&quot;:0,&quot;rounded&quot;:0};size=65;fillColor=#e1d5e7;strokeColor=#9673a6;" vertex="1" parent="1">
          <mxGeometry x="20" y="596" width="150" height="576" as="geometry" />
        </mxCell>
        <mxCell id="rM3IPMLhM91sqdTLPy3J-14" value="System" style="shape=umlLifeline;perimeter=lifelinePerimeter;whiteSpace=wrap;container=1;dropTarget=0;collapsible=0;recursiveResize=0;outlineConnect=0;portConstraint=eastwest;newEdgeStyle={&quot;edgeStyle&quot;:&quot;elbowEdgeStyle&quot;,&quot;elbow&quot;:&quot;vertical&quot;,&quot;curved&quot;:0,&quot;rounded&quot;:0};size=65;fillColor=#e1d5e7;strokeColor=#9673a6;" vertex="1" parent="1">
          <mxGeometry x="265" y="596" width="150" height="576" as="geometry" />
        </mxCell>
        <mxCell id="rM3IPMLhM91sqdTLPy3J-15" value="Hiring Manager" style="shape=umlLifeline;perimeter=lifelinePerimeter;whiteSpace=wrap;container=1;dropTarget=0;collapsible=0;recursiveResize=0;outlineConnect=0;portConstraint=eastwest;newEdgeStyle={&quot;edgeStyle&quot;:&quot;elbowEdgeStyle&quot;,&quot;elbow&quot;:&quot;vertical&quot;,&quot;curved&quot;:0,&quot;rounded&quot;:0};size=65;fillColor=#e1d5e7;strokeColor=#9673a6;" vertex="1" parent="1">
          <mxGeometry x="530" y="596" width="150" height="576" as="geometry" />
        </mxCell>
        <mxCell id="rM3IPMLhM91sqdTLPy3J-16" value="Billing Department" style="shape=umlLifeline;perimeter=lifelinePerimeter;whiteSpace=wrap;container=1;dropTarget=0;collapsible=0;recursiveResize=0;outlineConnect=0;portConstraint=eastwest;newEdgeStyle={&quot;edgeStyle&quot;:&quot;elbowEdgeStyle&quot;,&quot;elbow&quot;:&quot;vertical&quot;,&quot;curved&quot;:0,&quot;rounded&quot;:0};size=65;fillColor=#e1d5e7;strokeColor=#9673a6;" vertex="1" parent="1">
          <mxGeometry x="730" y="596" width="152" height="576" as="geometry" />
        </mxCell>
      </root>
    </mxGraphModel>
  </diagram>
</mxfile>
